<?xml version="1.0" encoding="UTF-8"?>
<svg id="Layer_1" xmlns="http://www.w3.org/2000/svg" version="1.1" viewBox="0 0 793.07 155.97">
  <!-- Generator: Adobe Illustrator 29.5.1, SVG Export Plug-In . SVG Version: 2.1.0 Build 141)  -->
  <defs>
    <style>
      .st0 {
        fill: #fff;
      }

      .st1 {
        fill: #cd7b2e;
      }
    </style>
  </defs>
  <path class="st0" d="M67.75,46.84v4.03c0,11.61-3.55,18.86-11.45,22.57v.32c9.51,3.71,13.22,12.09,13.22,24.02v9.19c0,17.41-9.19,26.76-26.92,26.76H14.71V20.89h26.76c18.38,0,26.28,8.54,26.28,25.96h0ZM32.44,37.01v29.82h6.93c6.61,0,10.64-2.9,10.64-11.93v-6.29c0-8.06-2.74-11.61-9.03-11.61h-8.54ZM32.44,82.95v34.66h10.16c5.96,0,9.19-2.74,9.19-11.12v-9.83c0-10.48-3.39-13.7-11.45-13.7h-7.9,0Z"/>
  <path class="st0" d="M117.24,133.73c-.97-2.9-1.61-4.67-1.61-13.86v-17.73c0-10.48-3.55-14.35-11.61-14.35h-6.13v45.94h-17.73V20.89h26.76c18.38,0,26.28,8.54,26.28,25.96v8.87c0,11.61-3.71,19.02-11.61,22.73v.32c8.87,3.71,11.77,12.09,11.77,23.86v17.41c0,5.48.16,9.51,1.93,13.7h-18.06,0ZM97.89,37.01v34.66h6.93c6.61,0,10.64-2.9,10.64-11.93v-11.12c0-8.06-2.74-11.61-9.03-11.61h-8.54Z"/>
  <path class="st0" d="M144.96,20.89h17.73v112.85h-17.73V20.89Z"/>
  <path class="st0" d="M175.59,20.89h17.73v96.73h29.18v16.12h-46.91V20.89Z"/>
  <path class="st0" d="M230.23,20.89h17.73v96.73h29.18v16.12h-46.91V20.89h0Z"/>
  <path class="st0" d="M284.88,20.89h17.73v112.85h-17.73V20.89Z"/>
  <path class="st0" d="M372.9,133.73h-17.89l-3.06-20.47h-21.76l-3.06,20.47h-16.28l18.06-112.85h25.95l18.06,112.85h-.02ZM332.44,97.95h17.09l-8.38-57.07h-.32l-8.38,57.07h0Z"/>
  <path class="st0" d="M397.24,52h-.32v81.73h-15.96V20.89h22.25l17.89,67.55h.32V20.89h15.8v112.85h-18.22l-21.76-81.73h0Z"/>
  <path class="st0" d="M444.79,20.89h54.81v16.12h-18.54v96.73h-17.73V37.01h-18.54v-16.12h0Z"/>
  <path class="st1" d="M525.07,133.73h-17.73V20.89h17.73v48.36h20.15V20.89h18.06v112.85h-18.06v-48.36h-20.15v48.36h0Z"/>
  <path class="st1" d="M574.72,47.97c0-18.05,9.51-28.37,26.92-28.37s26.92,10.32,26.92,28.37v58.68c0,18.06-9.51,28.37-26.92,28.37s-26.92-10.32-26.92-28.37v-58.68ZM592.45,107.78c0,8.06,3.55,11.12,9.19,11.12s9.19-3.06,9.19-11.12v-60.94c0-8.06-3.55-11.12-9.19-11.12s-9.19,3.06-9.19,11.12v60.94Z"/>
  <path class="st1" d="M677.41,101.01h.32l11.93-80.12h24.67v112.85h-16.77V52.81h-.32l-11.93,80.93h-16.77l-12.9-79.8h-.32v79.8h-15.48V20.89h24.67l12.9,80.12h0Z"/>
  <path class="st1" d="M744.95,68.44h24.34v16.12h-24.34v33.05h30.63v16.12h-48.36V20.89h48.36v16.12h-30.63v31.44h0Z"/>
</svg>